<svg width="242" height="15" viewBox="0 0 242 15" fill="none" xmlns="http://www.w3.org/2000/svg">
<path d="M0.76549 14H2.35535L3.98447 10.3688H11.4627L13.0722 14H14.7406L8.47927 0.162302H7.0268L0.76549 14ZM4.59294 8.95562L7.73341 1.96807L10.8543 8.95562H4.59294ZM17.45 14H19.0006V8.6612H22.9262L26.9107 14H28.8146L24.5946 8.38641C26.7536 7.99385 28.3239 6.65915 28.3239 4.38231V4.34305C28.3239 3.26352 27.9313 2.30175 27.264 1.6344C26.4003 0.770768 25.046 0.260442 23.358 0.260442H17.45V14ZM19.0006 7.26762V1.69328H23.2402C25.4582 1.69328 26.7536 2.71393 26.7536 4.40194V4.44119C26.7536 6.20771 25.2816 7.26762 23.2206 7.26762H19.0006ZM38.0133 14.2355C40.3294 14.2355 42.253 13.2738 43.5288 12.1353V6.65915H37.8563V8.05273H42.0371V11.468C41.0949 12.2335 39.6425 12.842 38.0722 12.842C34.7355 12.842 32.6353 10.4081 32.6353 7.13022V7.09096C32.6353 4.02901 34.814 1.45775 37.8563 1.45775C39.7995 1.45775 40.9772 2.10547 42.0371 3.02798L43.0381 1.85031C41.6641 0.692257 40.2313 0.024907 37.9152 0.024907C33.7933 0.024907 31.0258 3.36166 31.0258 7.13022V7.16948C31.0258 11.0951 33.6952 14.2355 38.0133 14.2355ZM47.0261 14H57.056V12.5868H48.5767V7.77794H56.0746V6.36473H48.5767V1.67365H56.9578V0.260442H47.0261V14ZM60.1753 14H61.6866V2.73356L70.5585 14H71.795V0.260442H70.2837V11.2717L61.6277 0.260442H60.1753V14ZM79.3133 14H80.8835V1.69328H85.4961V0.260442H74.7007V1.69328H79.3133V14ZM93.9054 14.2159C97.3403 14.2159 99.6368 12.1353 99.6368 8.13125V0.260442H98.0862V8.24901C98.0862 11.2521 96.4767 12.7831 93.9447 12.7831C91.3342 12.7831 89.7443 11.1147 89.7443 8.15087V0.260442H88.1937V8.24901C88.1937 12.1353 90.5098 14.2159 93.9054 14.2159ZM103.303 14H104.814V2.89059L109.82 10.2314H109.898L114.903 2.87096V14H116.454V0.260442H114.884L109.878 7.75831L104.873 0.260442H103.303V14ZM124.756 14H127.837L129.094 10.9184H134.903L136.16 14H139.32L133.431 0.162302H130.644L124.756 14ZM130.173 8.24901L131.999 3.79347L133.824 8.24901H130.173ZM141.44 14H151.313V11.2521H144.463V0.260442H141.44V14ZM153.593 14H156.615V9.87813H158.912C161.994 9.87813 164.467 8.22939 164.467 5.04966V5.0104C164.467 2.20361 162.484 0.260442 159.206 0.260442H153.593V14ZM156.615 7.18911V2.98873H158.951C160.463 2.98873 161.405 3.71496 161.405 5.06929V5.10854C161.405 6.28622 160.521 7.18911 159.01 7.18911H156.615ZM166.704 14H169.726V8.48455H175.301V14H178.323V0.260442H175.301V5.69738H169.726V0.260442H166.704V14ZM180.439 14H183.52L184.776 10.9184H190.586L191.842 14H195.003L189.114 0.162302H186.327L180.439 14ZM185.856 8.24901L187.681 3.79347L189.507 8.24901H185.856ZM203.008 14H205.991V5.26557L212.645 14H215.216V0.260442H212.233V8.72008L205.795 0.260442H203.008V14ZM218.514 14H221.537V8.68083H228.093V5.93292H221.537V3.00835H228.976V0.260442H218.514V14ZM234.595 14H237.617V3.04761H241.798V0.260442H230.414V3.04761H234.595V14Z" fill="white"/>
</svg>
